<?xml version="1.0" encoding="utf-8"?>
<!-- Generator: Adobe Illustrator 21.1.0, SVG Export Plug-In . SVG Version: 6.00 Build 0)  -->
<svg version="1.1" id="Layer_1" xmlns="http://www.w3.org/2000/svg" xmlns:xlink="http://www.w3.org/1999/xlink" x="0px" y="0px" viewBox="0 0 128 128" style="enable-background:new 0 0 128 128;" xml:space="preserve">

<g>
	<g>
		<g>
			<g>
				<path d="M86,124L86,124c-3.9,0-7-3.1-7-7V46c0-3.9,3.1-7,7-7h0c3.9,0,7,3.1,7,7v71C93,120.9,89.9,124,86,124z" style="fill:#9EB9D3;"/>
			</g>
		</g>
	</g>
	<g>
		<g>
			<g>
				<path d="M86,127c-5.5,0-10-4.5-10-10V46c0-5.5,4.5-10,10-10s10,4.5,10,10v71C96,122.5,91.5,127,86,127z M86,42
					c-2.2,0-4,1.8-4,4v71c0,2.2,1.8,4,4,4s4-1.8,4-4V46C90,43.8,88.2,42,86,42z" style="fill:#444B54;"/>
			</g>
		</g>
	</g>
	<g>
		<g>
			<g>
				<path d="M99,31L99,31c5.5,0,10-4.5,10-10v-6.5H89V21C89,26.5,93.5,31,99,31z" style="fill:#9EB9D3;"/>
			</g>
		</g>
	</g>
	<g>
		<g>
			<g>
				<path d="M44,31V14c0-5.5-4.5-10-10-10h45h0c5.5,0,10,4.5,10,10v7c0,5.5,4.5,10,10,10h0" style="fill:#CADBEA;"/>
			</g>
		</g>
	</g>
	<g>
		<g>
			<g>
				<path d="M69,124H24c-5.5,0-10-4.5-10-10V49c0-5.5,4.5-10,10-10h45c5.5,0,10,4.5,10,10v65C79,119.5,74.5,124,69,124z
					" style="fill:#FFFFFF;"/>
			</g>
		</g>
	</g>
	<g>
		<g>
			<g>
				<rect x="24" y="67" width="45" height="20" style="fill:#CADBEA;"/>
			</g>
		</g>
	</g>
	<g>
		<g>
			<g>
				<path d="M86,127H21c-5.5,0-10-4.5-10-10V46c0-5.5,4.5-10,10-10h65c1.7,0,3,1.3,3,3s-1.3,3-3,3c-2.2,0-4,1.8-4,4v71
					c0,2.2,1.8,4,4,4c1.7,0,3,1.3,3,3S87.7,127,86,127z M21,42c-2.2,0-4,1.8-4,4v71c0,2.2,1.8,4,4,4h55.8c-0.5-1.2-0.8-2.6-0.8-4V46
					c0-1.4,0.3-2.8,0.8-4H21z" style="fill:#444B54;"/>
			</g>
		</g>
	</g>
	<g>
		<g>
			<g>
				<path d="M69,61H24c-1.7,0-3-1.3-3-3s1.3-3,3-3h45c1.7,0,3,1.3,3,3S70.7,61,69,61z" style="fill:#444B54;"/>
			</g>
		</g>
	</g>
	<g>
		<g>
			<g>
				<circle cx="63.5" cy="97.5" r="4" style="fill:#6EC6AF;"/>
			</g>
		</g>
	</g>
	<g>
		<g>
			<g>
				<circle cx="63.5" cy="111.5" r="4" style="fill:#CADBEA;"/>
			</g>
		</g>
	</g>
	<g>
		<g>
			<g>
				<circle cx="46.5" cy="97.5" r="4" style="fill:#CADBEA;"/>
			</g>
		</g>
	</g>
	<g>
		<g>
			<g>
				<circle cx="46.5" cy="111.5" r="4" style="fill:#CADBEA;"/>
			</g>
		</g>
	</g>
	<g>
		<g>
			<g>
				<circle cx="29.5" cy="97.5" r="4" style="fill:#CADBEA;"/>
			</g>
		</g>
	</g>
	<g>
		<g>
			<g>
				<circle cx="29.5" cy="111.5" r="4" style="fill:#CADBEA;"/>
			</g>
		</g>
	</g>
	<g>
		<g>
			<g>
				<path d="M99,34c-7.2,0-13-5.8-13-13v-7c0-3.9-3.1-7-7-7c-1.7,0-3-1.3-3-3s1.3-3,3-3c7.2,0,13,5.8,13,13v7
					c0,3.9,3.1,7,7,7s7-3.1,7-7v-6c0-1.7,1.3-3,3-3s3,1.3,3,3v6C112,28.2,106.2,34,99,34z" style="fill:#444B54;"/>
			</g>
		</g>
	</g>
	<g>
		<g>
			<g>
				<path d="M69,52V14c0-5.5,4.5-10,10-10h0H34c-5.5,0-10,4.5-10,10v38" style="fill:#FFFFFF;"/>
			</g>
		</g>
	</g>
	<g>
		<g>
			<g>
				<path d="M24,51c-1.7,0-3-1.3-3-3V14c0-7.2,5.8-13,13-13c1.7,0,3,1.3,3,3s-1.3,3-3,3c-3.9,0-7,3.1-7,7v34
					C27,49.7,25.7,51,24,51z" style="fill:#444B54;"/>
			</g>
		</g>
	</g>
	<g>
		<g>
			<g>
				<path d="M69,61c-1.7,0-3-1.3-3-3V14c0-2.6,0.8-5,2-7H34c-1.7,0-3-1.3-3-3s1.3-3,3-3h45c1.7,0,3,1.3,3,3s-1.3,3-3,3
					c-3.9,0-7,3.1-7,7v44C72,59.7,70.7,61,69,61z" style="fill:#444B54;"/>
			</g>
		</g>
	</g>
	<g>
		<g>
			<g>
				<path d="M46.9,48c-1.1,0-2.1-0.8-2.3-1.9l-0.1-0.6L44,45.3c-1.1-0.4-2-0.9-2.8-1.7c-0.9-0.8-1.6-1.8-2.1-3
					c-0.2-0.6-0.3-1.2,0-1.7c0.2-0.6,0.7-1,1.2-1.3c0.3-0.1,0.6-0.2,0.9-0.2c0.9,0,1.7,0.5,2.1,1.4c0.3,0.6,0.6,1.1,1,1.4
					c0.4,0.3,0.8,0.6,1.3,0.7c0.7,0.2,1.3,0.3,1.8,0.3c0.7,0,1.3-0.1,1.8-0.3c0.5-0.2,0.8-0.4,1.1-0.7c0.3-0.3,0.5-0.7,0.7-1.2
					c0.2-0.5,0.2-1,0.2-1.6c0-0.9-0.2-1.4-0.4-1.7c-0.3-0.4-0.6-0.8-1-1c-0.5-0.3-1-0.5-1.6-0.7c-0.8-0.2-1.5-0.4-2.3-0.7
					c-0.8-0.2-1.7-0.5-2.5-0.8c-0.9-0.4-1.8-0.9-2.5-1.5c-0.7-0.6-1.3-1.4-1.8-2.4c-0.4-0.9-0.7-2.1-0.7-3.5c0-1,0.2-2,0.5-2.9
					c0.4-1,0.9-1.8,1.6-2.6c0.7-0.8,1.7-1.4,2.7-1.8c0.2-0.1,0.5-0.2,0.8-0.3l0.6-0.2l0.1-0.6c0.2-1,1.2-1.8,2.2-1.8
					c1.1,0,2,0.7,2.2,1.8l0.1,0.6l0.6,0.2c0.3,0.1,0.6,0.2,0.8,0.3c1.1,0.5,2,1.1,2.7,2c0.7,0.8,1.2,1.7,1.6,2.8
					c0.2,0.6,0.1,1.2-0.1,1.7c-0.3,0.5-0.8,0.9-1.3,1.1c-0.2,0.1-0.5,0.1-0.7,0.1c-1,0-1.9-0.6-2.2-1.6c-0.2-0.5-0.4-0.9-0.7-1.2
					c-0.3-0.3-0.6-0.6-1.1-0.8c-0.5-0.2-1.1-0.3-1.9-0.3c-0.8,0-1.4,0.1-1.9,0.3c-0.5,0.2-0.9,0.5-1.2,0.8c-0.3,0.3-0.5,0.6-0.7,1
					c-0.2,0.4-0.2,0.9-0.2,1.3c0,0.9,0.1,1.4,0.2,1.6c0.2,0.4,0.4,0.7,0.6,0.9c0.3,0.3,0.7,0.5,1.2,0.7c0.7,0.3,1.4,0.5,2.1,0.7
					c0.8,0.2,1.6,0.5,2.4,0.7c1,0.3,2,0.7,2.8,1.3c1,0.6,1.8,1.5,2.4,2.5c0.7,1.1,1,2.5,1,4.1c0,1-0.2,2.1-0.5,3
					c-0.3,1.1-0.9,2-1.6,2.8c-0.7,0.8-1.7,1.5-2.8,1.9c-0.3,0.1-0.6,0.2-0.9,0.3l-0.6,0.2l-0.1,0.6C48.9,47.3,48,48,46.9,48z" style="fill:#9EB9D3;"/>
			</g>
		</g>
	</g>
</g>
</svg>
