<?xml version="1.0" encoding="iso-8859-1"?>
<!-- Generator: Adobe Illustrator 21.0.2, SVG Export Plug-In . SVG Version: 6.00 Build 0)  -->
<svg version="1.1" id="Layer_1" xmlns="http://www.w3.org/2000/svg" xmlns:xlink="http://www.w3.org/1999/xlink" x="0px" y="0px"
	 viewBox="0 0 40 40" style="enable-background:new 0 0 40 40;" xml:space="preserve">
<path style="fill:#DFF0FE;" d="M1.5,38.5V14c0-1.378,1.122-2.5,2.5-2.5h32c1.378,0,2.5,1.122,2.5,2.5v24.5H1.5z"/>
<path style="fill:#4788C7;" d="M36,12c1.103,0,2,0.897,2,2v24H2V14c0-1.103,0.897-2,2-2H36 M36,11H4c-1.657,0-3,1.343-3,3v25h38V14
	C39,12.343,37.657,11,36,11L36,11z"/>
<rect x="6.5" y="22.5" style="fill:#98CCFD;" width="27" height="4"/>
<path style="fill:#98CCFD;" d="M33,23v3H7v-3H33 M34,22H6v5h28V22L34,22z"/>
<rect x="6.5" y="31.5" style="fill:#98CCFD;" width="3" height="3"/>
<path style="fill:#98CCFD;" d="M9,32v2H7v-2H9 M10,31H6v4h4V31L10,31z"/>
<rect x="12.5" y="31.5" style="fill:#98CCFD;" width="3" height="3"/>
<path style="fill:#98CCFD;" d="M15,32v2h-2v-2H15 M16,31h-4v4h4V31L16,31z"/>
<rect x="18.5" y="31.5" style="fill:#98CCFD;" width="3" height="3"/>
<path style="fill:#98CCFD;" d="M21,32v2h-2v-2H21 M22,31h-4v4h4V31L22,31z"/>
<rect x="24.5" y="31.5" style="fill:#98CCFD;" width="3" height="3"/>
<path style="fill:#98CCFD;" d="M27,32v2h-2v-2H27 M28,31h-4v4h4V31L28,31z"/>
<rect x="30.5" y="31.5" style="fill:#B6DCFE;" width="3" height="3"/>
<path style="fill:#B6DCFE;" d="M33,32v2h-2v-2H33 M34,31h-4v4h4V31L34,31z"/>
<path style="fill:#4788C7;" d="M33,16H7c-0.552,0-1,0.448-1,1l0,0c0,0.552,0.448,1,1,1h26c0.552,0,1-0.448,1-1l0,0
	C34,16.448,33.552,16,33,16z"/>
<rect x="9.5" y="1.5" style="fill:#FFFFFF;" width="21" height="16"/>
<path style="fill:#4788C7;" d="M30,2v15H10V2H30 M31,1H9c0,0.953,0,17,0,17h22C31,18,31,1.953,31,1L31,1z"/>
<line style="fill:none;stroke:#4788C7;stroke-linecap:round;stroke-miterlimit:10;" x1="14.5" y1="5.5" x2="25.5" y2="5.5"/>
<line style="fill:none;stroke:#4788C7;stroke-linecap:round;stroke-miterlimit:10;" x1="14.5" y1="9.5" x2="25.5" y2="9.5"/>
</svg>
