<?xml version="1.0" encoding="utf-8"?>
<!-- Generator: Adobe Illustrator 18.0.0, SVG Export Plug-In . SVG Version: 6.00 Build 0)  -->
<!DOCTYPE svg PUBLIC "-//W3C//DTD SVG 1.1//EN" "http://www.w3.org/Graphics/SVG/1.1/DTD/svg11.dtd">
<svg version="1.1" id="Слой_1" xmlns="http://www.w3.org/2000/svg" xmlns:xlink="http://www.w3.org/1999/xlink" x="0px" y="0px"
	 viewBox="0 0 128 128" enable-background="new 0 0 128 128" xml:space="preserve">
<g>
	<path fill="#FFFFFF" d="M94.5,114h-61c-5.5,0-10-4.5-10-10V24c0-5.5,4.5-10,10-10h61c5.5,0,10,4.5,10,10v80
		C104.5,109.5,100,114,94.5,114z"/>
	<path fill="#9FBAD3" d="M67.8,44.9l-6.2-1.5c-1.9-0.5-3.1-2.1-3.1-4c0-2.3,1.9-4.2,4.2-4.2h3c2.1,0,3.8,1.7,3.8,3.8
		c0,1.7,1.3,3,3,3s3-1.3,3-3c0-5-3.7-9.1-8.5-9.7v-1.3c0-1.7-1.3-3-3-3s-3,1.3-3,3v1.4c-4.8,0.8-8.5,5-8.5,10c0,4.7,3.2,8.7,7.7,9.9
		l6.2,1.5c1.9,0.5,3.1,2.1,3.1,4c0,2.3-1.9,4.2-4.2,4.2l-3,0c-2.1,0-3.8-1.7-3.8-3.8c0-1.7-1.3-3-3-3s-3,1.3-3,3
		c0,5,3.7,9.1,8.5,9.7v1.3c0,1.7,1.3,3,3,3s3-1.3,3-3v-1.4c4.8-0.8,8.5-5,8.5-10C75.5,50,72.3,46,67.8,44.9z"/>
	<path fill="#454B54" d="M104.5,107c-1.7,0-3-1.3-3-3V24c0-3.9-3.1-7-7-7h-61c-3.9,0-7,3.1-7,7v20c0,1.7-1.3,3-3,3s-3-1.3-3-3V24
		c0-7.2,5.8-13,13-13h61c7.2,0,13,5.8,13,13v80C107.5,105.7,106.2,107,104.5,107z"/>
	<path fill="#D8D4EA" d="M101,114H27c-5.5,0-10-4.5-10-10V54l47,30l47-30v50C111,109.5,106.5,114,101,114z"/>
	<path fill="#454B54" d="M101,117H27c-7.2,0-13-5.8-13-13V54c0-1.1,0.6-2.1,1.6-2.6c1-0.5,2.1-0.5,3.1,0.1l47,30
		c1.4,0.9,1.8,2.7,0.9,4.1c-0.9,1.4-2.7,1.8-4.1,0.9L20,59.5V104c0,3.9,3.1,7,7,7h74c3.9,0,7-3.1,7-7V54c0-1.7,1.3-3,3-3s3,1.3,3,3
		v50C114,111.2,108.2,117,101,117z"/>
	<path fill="#454B54" d="M38.8,103.7c-1,0-1.9-0.5-2.5-1.4c-0.9-1.4-0.5-3.2,0.9-4.1l72.2-46.7c1.4-0.9,3.2-0.5,4.1,0.9
		c0.9,1.4,0.5,3.2-0.9,4.1l-72.2,46.7C40,103.5,39.4,103.7,38.8,103.7z"/>
</g>
</svg>
