<?xml version="1.0" encoding="utf-8"?>
<!-- Generator: Adobe Illustrator 23.0.1, SVG Export Plug-In . SVG Version: 6.00 Build 0)  -->
<svg version="1.1" id="Layer_1" xmlns="http://www.w3.org/2000/svg" xmlns:xlink="http://www.w3.org/1999/xlink" x="0px" y="0px"
	 viewBox="0 0 56.7 56.7" style="enable-background:new 0 0 56.7 56.7;" xml:space="preserve">
<style type="text/css">
	.st0{fill:#FFFFFF;}
	.st1{fill:#4788C7;}
	.st2{fill:#B6DCFE;}
	.st3{fill:#DFF0FE;}
</style>
<g>
	<rect x="10.8" y="19.3" class="st0" width="35" height="27.5"/>
	<g>
		<path class="st1" d="M45.3,19.8v26.5h-34V19.8H45.3 M46.3,18.8h-36v28.5h36V18.8L46.3,18.8z"/>
	</g>
</g>
<g>
	<rect x="29.8" y="29.8" class="st2" width="11" height="17"/>
	<g>
		<path class="st1" d="M40.3,30.3v16h-10v-16H40.3 M41.3,29.3h-12v18h12V29.3L41.3,29.3z"/>
	</g>
</g>
<g>
	<rect x="15.8" y="29.8" class="st2" width="9" height="8"/>
	<g>
		<path class="st1" d="M24.3,30.3v7h-8v-7H24.3 M25.3,29.3h-10v9h10V29.3L25.3,29.3z"/>
	</g>
</g>
<g>
	<path class="st2" d="M44.3,26.8c-1.9,0-3.5-1.6-3.5-3.5c0-0.3-0.2-0.5-0.5-0.5s-0.5,0.2-0.5,0.5c0,1.9-1.6,3.5-3.5,3.5
		s-3.5-1.6-3.5-3.5c0-0.3-0.2-0.5-0.5-0.5c-0.3,0-0.5,0.2-0.5,0.5c0,1.9-1.6,3.5-3.5,3.5s-3.5-1.6-3.5-3.5c0-0.3-0.2-0.5-0.5-0.5
		s-0.5,0.2-0.5,0.5c0,1.9-1.6,3.5-3.5,3.5s-3.5-1.6-3.5-3.5c0-0.3-0.2-0.5-0.5-0.5c-0.3,0-0.5,0.2-0.5,0.5c0,1.9-1.6,3.5-3.5,3.5
		c-0.1,0-0.2,0-0.3,0c-1.8-0.2-3.2-1.8-3.2-3.7v-3.7l2.9-5.5c0-0.1,0.1-0.2,0.1-0.2v-2.4c0-0.8,0.7-1.5,1.5-1.5h30
		c0.8,0,1.5,0.7,1.5,1.5v2.4c0,0.1,0,0.2,0.1,0.2l2.9,5.5v3.7c0,1.9-1.4,3.5-3.2,3.7C44.6,26.8,44.5,26.8,44.3,26.8z"/>
	<g>
		<path class="st1" d="M43.3,10.3c0.6,0,1,0.4,1,1v2.4c0,0.2,0,0.3,0.1,0.5l2.9,5.4v3.6c0,1.6-1.2,3-2.7,3.2c-0.1,0-0.2,0-0.3,0
			c-1.7,0-3-1.3-3-3c0-0.6-0.4-1-1-1s-1,0.4-1,1c0,1.7-1.3,3-3,3s-3-1.3-3-3c0-0.6-0.4-1-1-1c-0.6,0-1,0.4-1,1c0,1.7-1.3,3-3,3
			s-3-1.3-3-3c0-0.6-0.4-1-1-1s-1,0.4-1,1c0,1.7-1.3,3-3,3c-1.7,0-3-1.3-3-3c0-0.6-0.4-1-1-1s-1,0.4-1,1c0,1.7-1.3,3-3,3
			c-0.1,0-0.2,0-0.3,0c-1.5-0.1-2.7-1.5-2.7-3.2v-3.6l2.9-5.4c0.1-0.1,0.1-0.3,0.1-0.5v-2.4c0-0.6,0.4-1,1-1H43.3 M43.3,9.3h-30
			c-1.1,0-2,0.9-2,2v2.4l-3,5.6v3.8c0,2.1,1.5,4,3.6,4.2c0.1,0,0.3,0,0.4,0c2.2,0,4-1.8,4-4c0,2.2,1.8,4,4,4s4-1.8,4-4
			c0,2.2,1.8,4,4,4s4-1.8,4-4c0,2.2,1.8,4,4,4s4-1.8,4-4c0,2.2,1.8,4,4,4c0.1,0,0.3,0,0.4,0c2.1-0.2,3.6-2.1,3.6-4.2v-3.8l-3-5.6
			v-2.4C45.3,10.2,44.5,9.3,43.3,9.3L43.3,9.3z"/>
	</g>
</g>
<rect x="11.3" y="13.3" class="st1" width="34" height="1"/>
<polygon class="st3" points="9.5,19.3 47.2,19.3 44.5,14.3 12.2,14.3 "/>
<rect x="8.3" y="19.3" class="st1" width="40" height="1"/>
<circle class="st1" cx="37.8" cy="38.3" r="1"/>
</svg>
