<?xml version="1.0" encoding="utf-8"?>
<!-- Generator: Adobe Illustrator 21.1.0, SVG Export Plug-In . SVG Version: 6.00 Build 0)  -->
<svg version="1.1" id="Layer_1" xmlns="http://www.w3.org/2000/svg" xmlns:xlink="http://www.w3.org/1999/xlink" x="0px" y="0px" viewBox="0 0 128 128" style="enable-background:new 0 0 128 128;" xml:space="preserve">

<g>
	<g>
		<g>
			<g>
				<path d="M14,24C8.5,24,4,28.5,4,34v10v10v60c0,5.5,4.5,10,10,10h95c5.5,0,10-4.5,10-10V54V24H14z" style="fill:#FFFFFF;"/>
			</g>
		</g>
	</g>
	<g>
		<g>
			<g>
				<g>
					<path d="M4,57c-1.7,0-3-1.3-3-3V34c0-7.2,5.8-13,13-13h105c1.7,0,3,1.3,3,3s-1.3,3-3,3H14c-3.9,0-7,3.1-7,7v20
						C7,55.7,5.7,57,4,57z" style="fill:#444B54;"/>
				</g>
			</g>
		</g>
		<g>
			<g>
				<g>
					<path d="M22,37V14c0-5.5,4.5-10,10-10h60c5.5,0,10,4.5,10,10v23H22z" style="fill:#FFFFFF;"/>
				</g>
			</g>
		</g>
		<g>
			<g>
				<g>
					<g>
						<rect x="37" y="4.4" width="15" height="32" style="fill:#9EB9D3;"/>
					</g>
				</g>
			</g>
		</g>
		<g>
			<g>
				<g>
					<g>
						<path d="M119,104V64h-5c-11,0-19.5,9-19.5,20s8.5,20,19.5,20H119z" style="fill:#CADBEA;"/>
					</g>
				</g>
			</g>
			<g>
				<g>
					<g>
						<path d="M109,127H14c-7.2,0-13-5.8-13-13V44c0-1.7,1.3-3,3-3s3,1.3,3,3v70c0,3.9,3.1,7,7,7h95c3.9,0,7-3.1,7-7V54
							c0-3.9-3.1-7-7-7c-1.7,0-3-1.3-3-3s1.3-3,3-3c7.2,0,13,5.8,13,13v60C122,121.2,116.2,127,109,127z" style="fill:#444B54;"/>
					</g>
				</g>
			</g>
			<g>
				<g>
					<g>
						<path d="M109,47H19c-1.7,0-3-1.3-3-3s1.3-3,3-3h90c1.7,0,3,1.3,3,3S110.7,47,109,47z" style="fill:#444B54;"/>
					</g>
				</g>
			</g>
			<g>
				<g>
					<g>
						<path d="M124,94h-10c-5.5,0-10-4.5-10-10v0c0-5.5,4.5-10,10-10h10V94z" style="fill:#FFFFFF;"/>
					</g>
				</g>
			</g>
			<g>
				<g>
					<g>
						<path d="M124,97h-10c-7.2,0-13-5.8-13-13s5.8-13,13-13h10c1.7,0,3,1.3,3,3v20C127,95.7,125.7,97,124,97z M114,77
							c-3.9,0-7,3.1-7,7s3.1,7,7,7h7V77H114z" style="fill:#444B54;"/>
					</g>
				</g>
			</g>
		</g>
		<g>
			<g>
				<g>
					<g>
						<g>
							<g>
								<g>
									<path d="M102,37c-1.7,0-3-1.3-3-3V14c0-3.9-3.1-7-7-7H32c-3.9,0-7,3.1-7,7v20c0,1.7-1.3,3-3,3s-3-1.3-3-3V14
										c0-7.2,5.8-13,13-13h60c7.2,0,13,5.8,13,13v20C105,35.7,103.7,37,102,37z" style="fill:#444B54;"/>
								</g>
							</g>
						</g>
					</g>
				</g>
			</g>
		</g>
	</g>
</g>
</svg>
